<?xml version="1.0" encoding="us-ascii" standalone="no"?><svg xmlns="http://www.w3.org/2000/svg" xmlns:xlink="http://www.w3.org/1999/xlink" contentStyleType="text/css" height="441px" preserveAspectRatio="none" style="width:859px;height:441px;background:#FFFFFF;" version="1.1" viewBox="0 0 859 441" width="859px" zoomAndPan="magnify"><defs/><g><!--class ATextLocation--><g id="elem_ATextLocation"><rect codeLine="6" fill="#F1F1F1" height="32" id="ATextLocation" rx="2.5" ry="2.5" style="stroke:#181818;stroke-width:0.5;" width="122" x="167.5" y="131.31"/><ellipse cx="182.5" cy="147.31" fill="#A9DCDF" rx="11" ry="11" style="stroke:#181818;stroke-width:1.0;"/><path d="M184.6875,149.0756 L180.5469,149.0756 L180.125,150.1069 L180.5469,150.1069 Q181.1563,150.1069 181.4219,150.3413 Q181.6875,150.5756 181.6875,150.9663 Q181.6875,151.3413 181.4219,151.5756 Q181.1563,151.81 180.5469,151.81 L178.25,151.81 Q177.6406,151.81 177.3906,151.5756 Q177.125,151.3413 177.125,150.9506 Q177.125,150.5756 177.4063,150.3413 Q177.6719,150.0913 178.2969,150.1069 L180.9688,143.4506 L179.8594,143.4506 Q179.25,143.4506 178.9844,143.2163 Q178.7188,142.9819 178.7188,142.5913 Q178.7188,142.2163 178.9844,141.9819 Q179.25,141.7475 179.8594,141.7475 L183.5313,141.7475 L186.9219,150.1069 Q187.5156,150.1069 187.7031,150.2475 Q188.0938,150.5131 188.0938,150.9663 Q188.0938,151.3413 187.8281,151.5756 Q187.5781,151.81 186.9688,151.81 L184.6719,151.81 Q184.0625,151.81 183.7969,151.5756 Q183.5313,151.3413 183.5313,150.9506 Q183.5313,150.5756 183.7969,150.3413 Q184.0625,150.1069 184.6719,150.1069 L185.0938,150.1069 L184.6875,149.0756 Z M183.9688,147.3725 L182.6094,143.9975 L181.2344,147.3725 L183.9688,147.3725 Z " fill="#000000"/><text fill="#000000" font-family="sans-serif" font-size="14" font-style="italic" lengthAdjust="spacing" textLength="90" x="196.5" y="153.1069">ATextLocation</text></g><!--class ILocation--><g id="elem_ILocation"><rect codeLine="14" fill="#F1F1F1" height="32" id="ILocation" rx="2.5" ry="2.5" style="stroke:#181818;stroke-width:0.5;" width="90" x="413.5" y="7"/><ellipse cx="428.5" cy="23" fill="#B4A7E5" rx="11" ry="11" style="stroke:#181818;stroke-width:1.0;"/><path d="M429.4531,19.6406 L429.4531,26.2969 L431.1719,26.2969 Q431.7813,26.2969 432.0469,26.5313 Q432.3125,26.7656 432.3125,27.1563 Q432.3125,27.5313 432.0469,27.7656 Q431.7813,28 431.1719,28 L426.0313,28 Q425.4219,28 425.1563,27.7656 Q424.8906,27.5313 424.8906,27.1406 Q424.8906,26.7656 425.1563,26.5313 Q425.4219,26.2969 426.0313,26.2969 L427.75,26.2969 L427.75,19.6406 L426.0313,19.6406 Q425.4219,19.6406 425.1563,19.4063 Q424.8906,19.1719 424.8906,18.7813 Q424.8906,18.4063 425.1563,18.1719 Q425.4219,17.9375 426.0313,17.9375 L431.1719,17.9375 Q431.7813,17.9375 432.0469,18.1719 Q432.3125,18.4063 432.3125,18.7813 Q432.3125,19.1719 432.0469,19.4063 Q431.7813,19.6406 431.1719,19.6406 L429.4531,19.6406 Z " fill="#000000"/><text fill="#000000" font-family="sans-serif" font-size="14" font-style="italic" lengthAdjust="spacing" textLength="58" x="442.5" y="28.7969">ILocation</text></g><!--class CharacterIndexTextLocation--><g id="elem_CharacterIndexTextLocation"><rect codeLine="8" fill="#F1F1F1" height="58.6211" id="CharacterIndexTextLocation" rx="2.5" ry="2.5" style="stroke:#181818;stroke-width:0.5;" width="209" x="7" y="246.93"/><ellipse cx="22" cy="262.93" fill="#ADD1B2" rx="11" ry="11" style="stroke:#181818;stroke-width:1.0;"/><path d="M24.7656,258.805 Q24.9219,258.5863 25.1094,258.4769 Q25.2969,258.3675 25.5156,258.3675 Q25.8906,258.3675 26.125,258.6331 Q26.3594,258.8831 26.3594,259.4925 L26.3594,260.9456 Q26.3594,261.555 26.125,261.8206 Q25.8906,262.0863 25.5156,262.0863 Q25.1719,262.0863 24.9688,261.8831 Q24.7656,261.6956 24.6563,261.18 Q24.6094,260.8206 24.4219,260.6331 Q24.0938,260.2581 23.4844,260.0394 Q22.875,259.8206 22.25,259.8206 Q21.4844,259.8206 20.8438,260.1488 Q20.2188,260.4769 19.7188,261.2269 Q19.2344,261.9769 19.2344,263.0081 L19.2344,264.1019 Q19.2344,265.3363 20.125,266.1644 Q21.0156,266.9769 22.6094,266.9769 Q23.5469,266.9769 24.2031,266.7269 Q24.5938,266.5706 25.0156,266.1331 Q25.2813,265.8675 25.4219,265.7894 Q25.5781,265.7113 25.7813,265.7113 Q26.1094,265.7113 26.3594,265.9769 Q26.625,266.2269 26.625,266.5706 Q26.625,266.9144 26.2813,267.3206 Q25.7813,267.8988 24.9844,268.2269 Q23.9063,268.68 22.6094,268.68 Q21.0938,268.68 19.8906,268.055 Q18.9063,267.555 18.2188,266.4925 Q17.5313,265.4144 17.5313,264.1331 L17.5313,262.9769 Q17.5313,261.6488 18.1406,260.5081 Q18.7656,259.3519 19.8594,258.7425 Q20.9531,258.1175 22.1875,258.1175 Q22.9219,258.1175 23.5625,258.2894 Q24.2188,258.4456 24.7656,258.805 Z " fill="#000000"/><text fill="#000000" font-family="sans-serif" font-size="14" lengthAdjust="spacing" textLength="177" x="36" y="268.7269">CharacterIndexTextLocation</text><line style="stroke:#181818;stroke-width:0.5;" x1="8" x2="215" y1="278.93" y2="278.93"/><text fill="#000000" font-family="sans-serif" font-size="14" lengthAdjust="spacing" textLength="93" x="13" y="298.0374">index: Integer?</text></g><!--class CompositeLocation--><g id="elem_CompositeLocation"><rect codeLine="12" fill="#F1F1F1" height="32" id="CompositeLocation" rx="2.5" ry="2.5" style="stroke:#181818;stroke-width:0.5;" width="153" x="324" y="131.31"/><ellipse cx="339" cy="147.31" fill="#ADD1B2" rx="11" ry="11" style="stroke:#181818;stroke-width:1.0;"/><path d="M341.7656,143.185 Q341.9219,142.9663 342.1094,142.8569 Q342.2969,142.7475 342.5156,142.7475 Q342.8906,142.7475 343.125,143.0131 Q343.3594,143.2631 343.3594,143.8725 L343.3594,145.3256 Q343.3594,145.935 343.125,146.2006 Q342.8906,146.4663 342.5156,146.4663 Q342.1719,146.4663 341.9688,146.2631 Q341.7656,146.0756 341.6563,145.56 Q341.6094,145.2006 341.4219,145.0131 Q341.0938,144.6381 340.4844,144.4194 Q339.875,144.2006 339.25,144.2006 Q338.4844,144.2006 337.8438,144.5288 Q337.2188,144.8569 336.7188,145.6069 Q336.2344,146.3569 336.2344,147.3881 L336.2344,148.4819 Q336.2344,149.7163 337.125,150.5444 Q338.0156,151.3569 339.6094,151.3569 Q340.5469,151.3569 341.2031,151.1069 Q341.5938,150.9506 342.0156,150.5131 Q342.2813,150.2475 342.4219,150.1694 Q342.5781,150.0913 342.7813,150.0913 Q343.1094,150.0913 343.3594,150.3569 Q343.625,150.6069 343.625,150.9506 Q343.625,151.2944 343.2813,151.7006 Q342.7813,152.2788 341.9844,152.6069 Q340.9063,153.06 339.6094,153.06 Q338.0938,153.06 336.8906,152.435 Q335.9063,151.935 335.2188,150.8725 Q334.5313,149.7944 334.5313,148.5131 L334.5313,147.3569 Q334.5313,146.0288 335.1406,144.8881 Q335.7656,143.7319 336.8594,143.1225 Q337.9531,142.4975 339.1875,142.4975 Q339.9219,142.4975 340.5625,142.6694 Q341.2188,142.8256 341.7656,143.185 Z " fill="#000000"/><text fill="#000000" font-family="sans-serif" font-size="14" lengthAdjust="spacing" textLength="121" x="353" y="153.1069">CompositeLocation</text></g><!--class JsonPathLocation--><g id="elem_JsonPathLocation"><rect codeLine="15" fill="#F1F1F1" height="58.6211" id="JsonPathLocation" rx="2.5" ry="2.5" style="stroke:#181818;stroke-width:0.5;" width="144" x="512.5" y="118"/><ellipse cx="527.5" cy="134" fill="#ADD1B2" rx="11" ry="11" style="stroke:#181818;stroke-width:1.0;"/><path d="M530.2656,129.875 Q530.4219,129.6563 530.6094,129.5469 Q530.7969,129.4375 531.0156,129.4375 Q531.3906,129.4375 531.625,129.7031 Q531.8594,129.9531 531.8594,130.5625 L531.8594,132.0156 Q531.8594,132.625 531.625,132.8906 Q531.3906,133.1563 531.0156,133.1563 Q530.6719,133.1563 530.4688,132.9531 Q530.2656,132.7656 530.1563,132.25 Q530.1094,131.8906 529.9219,131.7031 Q529.5938,131.3281 528.9844,131.1094 Q528.375,130.8906 527.75,130.8906 Q526.9844,130.8906 526.3438,131.2188 Q525.7188,131.5469 525.2188,132.2969 Q524.7344,133.0469 524.7344,134.0781 L524.7344,135.1719 Q524.7344,136.4063 525.625,137.2344 Q526.5156,138.0469 528.1094,138.0469 Q529.0469,138.0469 529.7031,137.7969 Q530.0938,137.6406 530.5156,137.2031 Q530.7813,136.9375 530.9219,136.8594 Q531.0781,136.7813 531.2813,136.7813 Q531.6094,136.7813 531.8594,137.0469 Q532.125,137.2969 532.125,137.6406 Q532.125,137.9844 531.7813,138.3906 Q531.2813,138.9688 530.4844,139.2969 Q529.4063,139.75 528.1094,139.75 Q526.5938,139.75 525.3906,139.125 Q524.4063,138.625 523.7188,137.5625 Q523.0313,136.4844 523.0313,135.2031 L523.0313,134.0469 Q523.0313,132.7188 523.6406,131.5781 Q524.2656,130.4219 525.3594,129.8125 Q526.4531,129.1875 527.6875,129.1875 Q528.4219,129.1875 529.0625,129.3594 Q529.7188,129.5156 530.2656,129.875 Z " fill="#000000"/><text fill="#000000" font-family="sans-serif" font-size="14" lengthAdjust="spacing" textLength="112" x="541.5" y="139.7969">JsonPathLocation</text><line style="stroke:#181818;stroke-width:0.5;" x1="513.5" x2="655.5" y1="150" y2="150"/><text fill="#000000" font-family="sans-serif" font-size="14" lengthAdjust="spacing" textLength="81" x="518.5" y="169.1074">path: String?</text></g><!--class LineColumnTextLocation--><g id="elem_LineColumnTextLocation"><rect codeLine="19" fill="#F1F1F1" height="77.2422" id="LineColumnTextLocation" rx="2.5" ry="2.5" style="stroke:#181818;stroke-width:0.5;" width="188" x="251.5" y="237.62"/><ellipse cx="266.5" cy="253.62" fill="#ADD1B2" rx="11" ry="11" style="stroke:#181818;stroke-width:1.0;"/><path d="M269.2656,249.495 Q269.4219,249.2763 269.6094,249.1669 Q269.7969,249.0575 270.0156,249.0575 Q270.3906,249.0575 270.625,249.3231 Q270.8594,249.5731 270.8594,250.1825 L270.8594,251.6356 Q270.8594,252.245 270.625,252.5106 Q270.3906,252.7763 270.0156,252.7763 Q269.6719,252.7763 269.4688,252.5731 Q269.2656,252.3856 269.1563,251.87 Q269.1094,251.5106 268.9219,251.3231 Q268.5938,250.9481 267.9844,250.7294 Q267.375,250.5106 266.75,250.5106 Q265.9844,250.5106 265.3438,250.8388 Q264.7188,251.1669 264.2188,251.9169 Q263.7344,252.6669 263.7344,253.6981 L263.7344,254.7919 Q263.7344,256.0263 264.625,256.8544 Q265.5156,257.6669 267.1094,257.6669 Q268.0469,257.6669 268.7031,257.4169 Q269.0938,257.2606 269.5156,256.8231 Q269.7813,256.5575 269.9219,256.4794 Q270.0781,256.4013 270.2813,256.4013 Q270.6094,256.4013 270.8594,256.6669 Q271.125,256.9169 271.125,257.2606 Q271.125,257.6044 270.7813,258.0106 Q270.2813,258.5888 269.4844,258.9169 Q268.4063,259.37 267.1094,259.37 Q265.5938,259.37 264.3906,258.745 Q263.4063,258.245 262.7188,257.1825 Q262.0313,256.1044 262.0313,254.8231 L262.0313,253.6669 Q262.0313,252.3388 262.6406,251.1981 Q263.2656,250.0419 264.3594,249.4325 Q265.4531,248.8075 266.6875,248.8075 Q267.4219,248.8075 268.0625,248.9794 Q268.7188,249.1356 269.2656,249.495 Z " fill="#000000"/><text fill="#000000" font-family="sans-serif" font-size="14" lengthAdjust="spacing" textLength="156" x="280.5" y="259.4169">LineColumnTextLocation</text><line style="stroke:#181818;stroke-width:0.5;" x1="252.5" x2="438.5" y1="269.62" y2="269.62"/><text fill="#000000" font-family="sans-serif" font-size="14" lengthAdjust="spacing" textLength="82" x="257.5" y="288.7274">line: Integer?</text><text fill="#000000" font-family="sans-serif" font-size="14" lengthAdjust="spacing" textLength="105" x="257.5" y="307.3485">column: Integer?</text></g><!--class NodeFeatureIndexLocation--><g id="elem_NodeFeatureIndexLocation"><rect codeLine="24" fill="#F1F1F1" height="58.6211" id="NodeFeatureIndexLocation" rx="2.5" ry="2.5" style="stroke:#181818;stroke-width:0.5;" width="202" x="650.5" y="375.86"/><ellipse cx="665.5" cy="391.86" fill="#ADD1B2" rx="11" ry="11" style="stroke:#181818;stroke-width:1.0;"/><path d="M668.2656,387.735 Q668.4219,387.5163 668.6094,387.4069 Q668.7969,387.2975 669.0156,387.2975 Q669.3906,387.2975 669.625,387.5631 Q669.8594,387.8131 669.8594,388.4225 L669.8594,389.8756 Q669.8594,390.485 669.625,390.7506 Q669.3906,391.0163 669.0156,391.0163 Q668.6719,391.0163 668.4688,390.8131 Q668.2656,390.6256 668.1563,390.11 Q668.1094,389.7506 667.9219,389.5631 Q667.5938,389.1881 666.9844,388.9694 Q666.375,388.7506 665.75,388.7506 Q664.9844,388.7506 664.3438,389.0788 Q663.7188,389.4069 663.2188,390.1569 Q662.7344,390.9069 662.7344,391.9381 L662.7344,393.0319 Q662.7344,394.2663 663.625,395.0944 Q664.5156,395.9069 666.1094,395.9069 Q667.0469,395.9069 667.7031,395.6569 Q668.0938,395.5006 668.5156,395.0631 Q668.7813,394.7975 668.9219,394.7194 Q669.0781,394.6413 669.2813,394.6413 Q669.6094,394.6413 669.8594,394.9069 Q670.125,395.1569 670.125,395.5006 Q670.125,395.8444 669.7813,396.2506 Q669.2813,396.8288 668.4844,397.1569 Q667.4063,397.61 666.1094,397.61 Q664.5938,397.61 663.3906,396.985 Q662.4063,396.485 661.7188,395.4225 Q661.0313,394.3444 661.0313,393.0631 L661.0313,391.9069 Q661.0313,390.5788 661.6406,389.4381 Q662.2656,388.2819 663.3594,387.6725 Q664.4531,387.0475 665.6875,387.0475 Q666.4219,387.0475 667.0625,387.2194 Q667.7188,387.3756 668.2656,387.735 Z " fill="#000000"/><text fill="#000000" font-family="sans-serif" font-size="14" lengthAdjust="spacing" textLength="170" x="679.5" y="397.6569">NodeFeatureIndexLocation</text><line style="stroke:#181818;stroke-width:0.5;" x1="651.5" x2="851.5" y1="407.86" y2="407.86"/><text fill="#000000" font-family="sans-serif" font-size="14" lengthAdjust="spacing" textLength="93" x="656.5" y="426.9674">index: Integer?</text></g><!--class NodeFeatureLocation--><g id="elem_NodeFeatureLocation"><rect codeLine="28" fill="#F1F1F1" height="58.6211" id="NodeFeatureLocation" rx="2.5" ry="2.5" style="stroke:#181818;stroke-width:0.5;" width="169" x="667" y="246.93"/><ellipse cx="682" cy="262.93" fill="#ADD1B2" rx="11" ry="11" style="stroke:#181818;stroke-width:1.0;"/><path d="M684.7656,258.805 Q684.9219,258.5863 685.1094,258.4769 Q685.2969,258.3675 685.5156,258.3675 Q685.8906,258.3675 686.125,258.6331 Q686.3594,258.8831 686.3594,259.4925 L686.3594,260.9456 Q686.3594,261.555 686.125,261.8206 Q685.8906,262.0863 685.5156,262.0863 Q685.1719,262.0863 684.9688,261.8831 Q684.7656,261.6956 684.6563,261.18 Q684.6094,260.8206 684.4219,260.6331 Q684.0938,260.2581 683.4844,260.0394 Q682.875,259.8206 682.25,259.8206 Q681.4844,259.8206 680.8438,260.1488 Q680.2188,260.4769 679.7188,261.2269 Q679.2344,261.9769 679.2344,263.0081 L679.2344,264.1019 Q679.2344,265.3363 680.125,266.1644 Q681.0156,266.9769 682.6094,266.9769 Q683.5469,266.9769 684.2031,266.7269 Q684.5938,266.5706 685.0156,266.1331 Q685.2813,265.8675 685.4219,265.7894 Q685.5781,265.7113 685.7813,265.7113 Q686.1094,265.7113 686.3594,265.9769 Q686.625,266.2269 686.625,266.5706 Q686.625,266.9144 686.2813,267.3206 Q685.7813,267.8988 684.9844,268.2269 Q683.9063,268.68 682.6094,268.68 Q681.0938,268.68 679.8906,268.055 Q678.9063,267.555 678.2188,266.4925 Q677.5313,265.4144 677.5313,264.1331 L677.5313,262.9769 Q677.5313,261.6488 678.1406,260.5081 Q678.7656,259.3519 679.8594,258.7425 Q680.9531,258.1175 682.1875,258.1175 Q682.9219,258.1175 683.5625,258.2894 Q684.2188,258.4456 684.7656,258.805 Z " fill="#000000"/><text fill="#000000" font-family="sans-serif" font-size="14" lengthAdjust="spacing" textLength="137" x="696" y="268.7269">NodeFeatureLocation</text><line style="stroke:#181818;stroke-width:0.5;" x1="668" x2="835" y1="278.93" y2="278.93"/><text fill="#000000" font-family="sans-serif" font-size="14" lengthAdjust="spacing" textLength="122" x="673" y="298.0374">featureKey: String?</text></g><!--class NodeLocation--><g id="elem_NodeLocation"><rect codeLine="32" fill="#F1F1F1" height="58.6211" id="NodeLocation" rx="2.5" ry="2.5" style="stroke:#181818;stroke-width:0.5;" width="119" x="692" y="118"/><ellipse cx="707" cy="134" fill="#ADD1B2" rx="11" ry="11" style="stroke:#181818;stroke-width:1.0;"/><path d="M709.7656,129.875 Q709.9219,129.6563 710.1094,129.5469 Q710.2969,129.4375 710.5156,129.4375 Q710.8906,129.4375 711.125,129.7031 Q711.3594,129.9531 711.3594,130.5625 L711.3594,132.0156 Q711.3594,132.625 711.125,132.8906 Q710.8906,133.1563 710.5156,133.1563 Q710.1719,133.1563 709.9688,132.9531 Q709.7656,132.7656 709.6563,132.25 Q709.6094,131.8906 709.4219,131.7031 Q709.0938,131.3281 708.4844,131.1094 Q707.875,130.8906 707.25,130.8906 Q706.4844,130.8906 705.8438,131.2188 Q705.2188,131.5469 704.7188,132.2969 Q704.2344,133.0469 704.2344,134.0781 L704.2344,135.1719 Q704.2344,136.4063 705.125,137.2344 Q706.0156,138.0469 707.6094,138.0469 Q708.5469,138.0469 709.2031,137.7969 Q709.5938,137.6406 710.0156,137.2031 Q710.2813,136.9375 710.4219,136.8594 Q710.5781,136.7813 710.7813,136.7813 Q711.1094,136.7813 711.3594,137.0469 Q711.625,137.2969 711.625,137.6406 Q711.625,137.9844 711.2813,138.3906 Q710.7813,138.9688 709.9844,139.2969 Q708.9063,139.75 707.6094,139.75 Q706.0938,139.75 704.8906,139.125 Q703.9063,138.625 703.2188,137.5625 Q702.5313,136.4844 702.5313,135.2031 L702.5313,134.0469 Q702.5313,132.7188 703.1406,131.5781 Q703.7656,130.4219 704.8594,129.8125 Q705.9531,129.1875 707.1875,129.1875 Q707.9219,129.1875 708.5625,129.3594 Q709.2188,129.5156 709.7656,129.875 Z " fill="#000000"/><text fill="#000000" font-family="sans-serif" font-size="14" lengthAdjust="spacing" textLength="87" x="721" y="139.7969">NodeLocation</text><line style="stroke:#181818;stroke-width:0.5;" x1="693" x2="810" y1="150" y2="150"/><text fill="#000000" font-family="sans-serif" font-size="14" lengthAdjust="spacing" textLength="96" x="698" y="169.1074">nodeId: String?</text></g><!--class RangeTextLocation--><g id="elem_RangeTextLocation"><rect codeLine="36" fill="#F1F1F1" height="58.6211" id="RangeTextLocation" rx="2.5" ry="2.5" style="stroke:#181818;stroke-width:0.5;" width="155" x="268" y="375.86"/><ellipse cx="283" cy="391.86" fill="#ADD1B2" rx="11" ry="11" style="stroke:#181818;stroke-width:1.0;"/><path d="M285.7656,387.735 Q285.9219,387.5163 286.1094,387.4069 Q286.2969,387.2975 286.5156,387.2975 Q286.8906,387.2975 287.125,387.5631 Q287.3594,387.8131 287.3594,388.4225 L287.3594,389.8756 Q287.3594,390.485 287.125,390.7506 Q286.8906,391.0163 286.5156,391.0163 Q286.1719,391.0163 285.9688,390.8131 Q285.7656,390.6256 285.6563,390.11 Q285.6094,389.7506 285.4219,389.5631 Q285.0938,389.1881 284.4844,388.9694 Q283.875,388.7506 283.25,388.7506 Q282.4844,388.7506 281.8438,389.0788 Q281.2188,389.4069 280.7188,390.1569 Q280.2344,390.9069 280.2344,391.9381 L280.2344,393.0319 Q280.2344,394.2663 281.125,395.0944 Q282.0156,395.9069 283.6094,395.9069 Q284.5469,395.9069 285.2031,395.6569 Q285.5938,395.5006 286.0156,395.0631 Q286.2813,394.7975 286.4219,394.7194 Q286.5781,394.6413 286.7813,394.6413 Q287.1094,394.6413 287.3594,394.9069 Q287.625,395.1569 287.625,395.5006 Q287.625,395.8444 287.2813,396.2506 Q286.7813,396.8288 285.9844,397.1569 Q284.9063,397.61 283.6094,397.61 Q282.0938,397.61 280.8906,396.985 Q279.9063,396.485 279.2188,395.4225 Q278.5313,394.3444 278.5313,393.0631 L278.5313,391.9069 Q278.5313,390.5788 279.1406,389.4381 Q279.7656,388.2819 280.8594,387.6725 Q281.9531,387.0475 283.1875,387.0475 Q283.9219,387.0475 284.5625,387.2194 Q285.2188,387.3756 285.7656,387.735 Z " fill="#000000"/><text fill="#000000" font-family="sans-serif" font-size="14" lengthAdjust="spacing" textLength="123" x="297" y="397.6569">RangeTextLocation</text><line style="stroke:#181818;stroke-width:0.5;" x1="269" x2="422" y1="407.86" y2="407.86"/><text fill="#000000" font-family="sans-serif" font-size="14" lengthAdjust="spacing" textLength="99" x="274" y="426.9674">length: Integer?</text></g><!--reverse link ILocation to ATextLocation--><g id="link_ILocation_ATextLocation"><path d="M413.4765,47.9397 C369.2365,71.4597 301.49,107.49 257.39,130.94 " fill="none" id="ILocation-backto-ATextLocation" style="stroke:#181818;stroke-width:1.0;stroke-dasharray:7.0,7.0;"/><polygon fill="none" points="429.37,39.49,410.66,42.6419,416.2931,53.2375,429.37,39.49" style="stroke:#181818;stroke-width:1.0;"/></g><!--reverse link ATextLocation to CharacterIndexTextLocation--><g id="link_ATextLocation_CharacterIndexTextLocation"><path d="M202.4177,176.6027 C183.5877,197.0227 161.79,220.68 138,246.49 " fill="none" id="ATextLocation-backto-CharacterIndexTextLocation" style="stroke:#181818;stroke-width:1.0;"/><polygon fill="none" points="214.62,163.37,198.0068,172.5352,206.8286,180.6701,214.62,163.37" style="stroke:#181818;stroke-width:1.0;"/></g><!--reverse link ILocation to CompositeLocation--><g id="link_ILocation_CompositeLocation"><path d="M431.91,52.6475 C424.61,60.9075 428.09,58.15 422.5,69 C412.14,89.09 406.08,114.71 403.03,130.82 " fill="none" id="ILocation-backto-CompositeLocation" style="stroke:#181818;stroke-width:1.0;stroke-dasharray:7.0,7.0;"/><polygon fill="none" points="443.83,39.16,427.4142,48.6742,436.4059,56.6209,443.83,39.16" style="stroke:#181818;stroke-width:1.0;"/></g><!--link CompositeLocation to ILocation--><g id="link_CompositeLocation_ILocation"><path codeLine="46" d="M412.9316,120.0973 C424.0516,96.6473 437.4298,68.4316 448.5798,44.9116 " fill="none" id="CompositeLocation-ILocation" style="stroke:#181818;stroke-width:1.0;"/><polygon fill="none" points="407.79,130.94,413.975,127.2325,412.9316,120.0973,406.7466,123.8048,407.79,130.94" style="stroke:#181818;stroke-width:1.0;"/><polygon fill="#181818" points="451.15,39.49,443.6803,45.909,449.0082,44.008,450.9091,49.3359,451.15,39.49" style="stroke:#181818;stroke-width:1.0;"/><text fill="#000000" font-family="sans-serif" font-size="13" lengthAdjust="spacing" textLength="52" x="437.5" y="84.0283">locations</text><text fill="#000000" font-family="sans-serif" font-size="13" lengthAdjust="spacing" textLength="7" x="401.9981" y="120.0874">1</text><text fill="#000000" font-family="sans-serif" font-size="13" lengthAdjust="spacing" textLength="5" x="443.2566" y="60.9019">*</text></g><!--reverse link ILocation to JsonPathLocation--><g id="link_ILocation_JsonPathLocation"><path d="M487.3746,52.0285 C507.6346,71.6985 530.07,93.47 555.23,117.9 " fill="none" id="ILocation-backto-JsonPathLocation" style="stroke:#181818;stroke-width:1.0;stroke-dasharray:7.0,7.0;"/><polygon fill="none" points="474.46,39.49,483.1951,56.3333,491.5541,47.7236,474.46,39.49" style="stroke:#181818;stroke-width:1.0;"/></g><!--reverse link ATextLocation to LineColumnTextLocation--><g id="link_ATextLocation_LineColumnTextLocation"><path d="M254.5845,176.6007 C271.2345,194.6507 287.54,212.36 310.37,237.13 " fill="none" id="ATextLocation-backto-LineColumnTextLocation" style="stroke:#181818;stroke-width:1.0;"/><polygon fill="none" points="242.38,163.37,250.1742,180.6688,258.9947,172.5325,242.38,163.37" style="stroke:#181818;stroke-width:1.0;"/></g><!--reverse link NodeFeatureLocation to NodeFeatureIndexLocation--><g id="link_NodeFeatureLocation_NodeFeatureIndexLocation"><path d="M751.5,324.04 C751.5,344.81 751.5,354.73 751.5,375.48 " fill="none" id="NodeFeatureLocation-backto-NodeFeatureIndexLocation" style="stroke:#181818;stroke-width:1.0;"/><polygon fill="none" points="751.5,306.04,745.5,324.04,757.5,324.04,751.5,306.04" style="stroke:#181818;stroke-width:1.0;"/></g><!--reverse link NodeLocation to NodeFeatureLocation--><g id="link_NodeLocation_NodeFeatureLocation"><path d="M751.5,195.11 C751.5,215.88 751.5,225.8 751.5,246.55 " fill="none" id="NodeLocation-backto-NodeFeatureLocation" style="stroke:#181818;stroke-width:1.0;"/><polygon fill="none" points="751.5,177.11,745.5,195.11,757.5,195.11,751.5,177.11" style="stroke:#181818;stroke-width:1.0;"/></g><!--reverse link ILocation to NodeLocation--><g id="link_ILocation_NodeLocation"><path d="M512.2209,46.4238 C561.5709,67.0238 632.8,96.75 691.6,121.3 " fill="none" id="ILocation-backto-NodeLocation" style="stroke:#181818;stroke-width:1.0;stroke-dasharray:7.0,7.0;"/><polygon fill="none" points="495.61,39.49,509.9096,51.9608,514.5322,40.8869,495.61,39.49" style="stroke:#181818;stroke-width:1.0;"/></g><!--reverse link LineColumnTextLocation to RangeTextLocation--><g id="link_LineColumnTextLocation_RangeTextLocation"><path d="M345.5,333.32 C345.5,352.6 345.5,357.62 345.5,375.4 " fill="none" id="LineColumnTextLocation-backto-RangeTextLocation" style="stroke:#181818;stroke-width:1.0;"/><polygon fill="none" points="345.5,315.32,339.5,333.32,351.5,333.32,345.5,315.32" style="stroke:#181818;stroke-width:1.0;"/></g><!--SRC=[ZL9DIyGm5BpdLpnw4OGjUEr1aGMXkeYeVo1jfsqWUQb9Yhk8_zr-x6hhTdLpIbvc9cychrO52AO9Ep8m6PmNueBUMgbLgL0GIuE48cLZhIo_8ulRe7IiRIv3LuY443BpmSayKAwbztJxYctOxEz9cKR3W8Edz50KOaIkQzdpu58ki9tHkZsu-2ts8OXKZqqevO0AxaPyVgjPqrYl0lvvMtLCLyeSa-AeSEyjFybG_oamDD5qg8HUWbDSJLhOACRQwjRmcMPqHvXu8Se7zfAzHrlW3ZAq3aDSH-eJm7c1BH6cOZELSWG-OBVWUuO-6HftgBHOe3zBhh2Os8b0X-Z0LVy9Kr_zw3he0UIJ_dmy5D5LH7QrkgReClffCA73H7knNry0]--></g></svg>