<?xml version="1.0" encoding="UTF-8" standalone="no"?><svg xmlns="http://www.w3.org/2000/svg" xmlns:xlink="http://www.w3.org/1999/xlink" contentStyleType="text/css" height="698px" preserveAspectRatio="none" style="width:973px;height:698px;background:#FFFFFF;" version="1.1" viewBox="0 0 973 698" width="973px" zoomAndPan="magnify"><defs/><g><!--class SLanguage--><g id="elem_SLanguage"><rect codeLine="3" fill="#F1F1F1" height="32" id="SLanguage" rx="2.5" ry="2.5" style="stroke:#181818;stroke-width:0.5;" width="105" x="310.5" y="12.7627"/><ellipse cx="325.5" cy="28.7627" fill="#B4A7E5" rx="11" ry="11" style="stroke:#181818;stroke-width:1.0;"/><path d="M326.4531,25.4033 L326.4531,32.0596 L328.1719,32.0596 Q328.7813,32.0596 329.0469,32.2939 Q329.3125,32.5283 329.3125,32.9189 Q329.3125,33.2939 329.0469,33.5283 Q328.7813,33.7627 328.1719,33.7627 L323.0313,33.7627 Q322.4219,33.7627 322.1563,33.5283 Q321.8906,33.2939 321.8906,32.9033 Q321.8906,32.5283 322.1563,32.2939 Q322.4219,32.0596 323.0313,32.0596 L324.75,32.0596 L324.75,25.4033 L323.0313,25.4033 Q322.4219,25.4033 322.1563,25.1689 Q321.8906,24.9346 321.8906,24.5439 Q321.8906,24.1689 322.1563,23.9346 Q322.4219,23.7002 323.0313,23.7002 L328.1719,23.7002 Q328.7813,23.7002 329.0469,23.9346 Q329.3125,24.1689 329.3125,24.5439 Q329.3125,24.9346 329.0469,25.1689 Q328.7813,25.4033 328.1719,25.4033 L326.4531,25.4033 Z " fill="#000000"/><text fill="#000000" font-family="sans-serif" font-size="14" font-style="italic" lengthAdjust="spacing" textLength="73" x="339.5" y="34.5596">SLanguage</text></g><!--class SModule--><g id="elem_SModule"><rect codeLine="14" fill="#F1F1F1" height="32" id="SModule" rx="2.5" ry="2.5" style="stroke:#181818;stroke-width:0.5;" width="88" x="561" y="12.7627"/><ellipse cx="576" cy="28.7627" fill="#B4A7E5" rx="11" ry="11" style="stroke:#181818;stroke-width:1.0;"/><path d="M576.9531,25.4033 L576.9531,32.0596 L578.6719,32.0596 Q579.2813,32.0596 579.5469,32.2939 Q579.8125,32.5283 579.8125,32.9189 Q579.8125,33.2939 579.5469,33.5283 Q579.2813,33.7627 578.6719,33.7627 L573.5313,33.7627 Q572.9219,33.7627 572.6563,33.5283 Q572.3906,33.2939 572.3906,32.9033 Q572.3906,32.5283 572.6563,32.2939 Q572.9219,32.0596 573.5313,32.0596 L575.25,32.0596 L575.25,25.4033 L573.5313,25.4033 Q572.9219,25.4033 572.6563,25.1689 Q572.3906,24.9346 572.3906,24.5439 Q572.3906,24.1689 572.6563,23.9346 Q572.9219,23.7002 573.5313,23.7002 L578.6719,23.7002 Q579.2813,23.7002 579.5469,23.9346 Q579.8125,24.1689 579.8125,24.5439 Q579.8125,24.9346 579.5469,25.1689 Q579.2813,25.4033 578.6719,25.4033 L576.9531,25.4033 Z " fill="#000000"/><text fill="#000000" font-family="sans-serif" font-size="14" font-style="italic" lengthAdjust="spacing" textLength="56" x="590" y="34.5596">SModule</text></g><!--class SLanguageAdapter--><g id="elem_SLanguageAdapter"><rect codeLine="7" fill="#F1F1F1" height="32" id="SLanguageAdapter" rx="2.5" ry="2.5" style="stroke:#181818;stroke-width:0.5;" width="155" x="92.5" y="197.7627"/><ellipse cx="107.5" cy="213.7627" fill="#A9DCDF" rx="11" ry="11" style="stroke:#181818;stroke-width:1.0;"/><path d="M109.6875,215.5283 L105.5469,215.5283 L105.125,216.5596 L105.5469,216.5596 Q106.1563,216.5596 106.4219,216.7939 Q106.6875,217.0283 106.6875,217.4189 Q106.6875,217.7939 106.4219,218.0283 Q106.1563,218.2627 105.5469,218.2627 L103.25,218.2627 Q102.6406,218.2627 102.3906,218.0283 Q102.125,217.7939 102.125,217.4033 Q102.125,217.0283 102.4063,216.7939 Q102.6719,216.5439 103.2969,216.5596 L105.9688,209.9033 L104.8594,209.9033 Q104.25,209.9033 103.9844,209.6689 Q103.7188,209.4346 103.7188,209.0439 Q103.7188,208.6689 103.9844,208.4346 Q104.25,208.2002 104.8594,208.2002 L108.5313,208.2002 L111.9219,216.5596 Q112.5156,216.5596 112.7031,216.7002 Q113.0938,216.9658 113.0938,217.4189 Q113.0938,217.7939 112.8281,218.0283 Q112.5781,218.2627 111.9688,218.2627 L109.6719,218.2627 Q109.0625,218.2627 108.7969,218.0283 Q108.5313,217.7939 108.5313,217.4033 Q108.5313,217.0283 108.7969,216.7939 Q109.0625,216.5596 109.6719,216.5596 L110.0938,216.5596 L109.6875,215.5283 Z M108.9688,213.8252 L107.6094,210.4502 L106.2344,213.8252 L108.9688,213.8252 Z " fill="#000000"/><text fill="#000000" font-family="sans-serif" font-size="14" font-style="italic" lengthAdjust="spacing" textLength="123" x="121.5" y="219.5596">SLanguageAdapter</text></g><!--class LanguageRuntime--><g id="elem_LanguageRuntime"><rect codeLine="10" fill="#F1F1F1" height="32" id="LanguageRuntime" rx="2.5" ry="2.5" style="stroke:#181818;stroke-width:0.5;" width="148" x="256" y="536.7627"/><ellipse cx="271" cy="552.7627" fill="#A9DCDF" rx="11" ry="11" style="stroke:#181818;stroke-width:1.0;"/><path d="M273.1875,554.5283 L269.0469,554.5283 L268.625,555.5596 L269.0469,555.5596 Q269.6563,555.5596 269.9219,555.7939 Q270.1875,556.0283 270.1875,556.4189 Q270.1875,556.7939 269.9219,557.0283 Q269.6563,557.2627 269.0469,557.2627 L266.75,557.2627 Q266.1406,557.2627 265.8906,557.0283 Q265.625,556.7939 265.625,556.4033 Q265.625,556.0283 265.9063,555.7939 Q266.1719,555.5439 266.7969,555.5596 L269.4688,548.9033 L268.3594,548.9033 Q267.75,548.9033 267.4844,548.6689 Q267.2188,548.4346 267.2188,548.0439 Q267.2188,547.6689 267.4844,547.4346 Q267.75,547.2002 268.3594,547.2002 L272.0313,547.2002 L275.4219,555.5596 Q276.0156,555.5596 276.2031,555.7002 Q276.5938,555.9658 276.5938,556.4189 Q276.5938,556.7939 276.3281,557.0283 Q276.0781,557.2627 275.4688,557.2627 L273.1719,557.2627 Q272.5625,557.2627 272.2969,557.0283 Q272.0313,556.7939 272.0313,556.4033 Q272.0313,556.0283 272.2969,555.7939 Q272.5625,555.5596 273.1719,555.5596 L273.5938,555.5596 L273.1875,554.5283 Z M272.4688,552.8252 L271.1094,549.4502 L269.7344,552.8252 L272.4688,552.8252 Z " fill="#000000"/><text fill="#000000" font-family="sans-serif" font-size="14" font-style="italic" lengthAdjust="spacing" textLength="116" x="285" y="558.5596">LanguageRuntime</text></g><!--class SLanguageId--><g id="elem_SLanguageId"><rect codeLine="27" fill="#F1F1F1" height="32" id="SLanguageId" rx="2.5" ry="2.5" style="stroke:#181818;stroke-width:0.5;" width="116" x="536" y="536.7627"/><ellipse cx="551" cy="552.7627" fill="#ADD1B2" rx="11" ry="11" style="stroke:#181818;stroke-width:1.0;"/><path d="M553.7656,548.6377 Q553.9219,548.4189 554.1094,548.3096 Q554.2969,548.2002 554.5156,548.2002 Q554.8906,548.2002 555.125,548.4658 Q555.3594,548.7158 555.3594,549.3252 L555.3594,550.7783 Q555.3594,551.3877 555.125,551.6533 Q554.8906,551.9189 554.5156,551.9189 Q554.1719,551.9189 553.9688,551.7158 Q553.7656,551.5283 553.6563,551.0127 Q553.6094,550.6533 553.4219,550.4658 Q553.0938,550.0908 552.4844,549.8721 Q551.875,549.6533 551.25,549.6533 Q550.4844,549.6533 549.8438,549.9814 Q549.2188,550.3096 548.7188,551.0596 Q548.2344,551.8096 548.2344,552.8408 L548.2344,553.9346 Q548.2344,555.1689 549.125,555.9971 Q550.0156,556.8096 551.6094,556.8096 Q552.5469,556.8096 553.2031,556.5596 Q553.5938,556.4033 554.0156,555.9658 Q554.2813,555.7002 554.4219,555.6221 Q554.5781,555.5439 554.7813,555.5439 Q555.1094,555.5439 555.3594,555.8096 Q555.625,556.0596 555.625,556.4033 Q555.625,556.7471 555.2813,557.1533 Q554.7813,557.7314 553.9844,558.0596 Q552.9063,558.5127 551.6094,558.5127 Q550.0938,558.5127 548.8906,557.8877 Q547.9063,557.3877 547.2188,556.3252 Q546.5313,555.2471 546.5313,553.9658 L546.5313,552.8096 Q546.5313,551.4814 547.1406,550.3408 Q547.7656,549.1846 548.8594,548.5752 Q549.9531,547.9502 551.1875,547.9502 Q551.9219,547.9502 552.5625,548.1221 Q553.2188,548.2783 553.7656,548.6377 Z " fill="#000000"/><text fill="#000000" font-family="sans-serif" font-size="14" lengthAdjust="spacing" textLength="84" x="565" y="558.5596">SLanguageId</text></g><!--class SModuleReference--><g id="elem_SModuleReference"><rect codeLine="24" fill="#F1F1F1" height="32" id="SModuleReference" rx="2.5" ry="2.5" style="stroke:#181818;stroke-width:0.5;" width="154" x="812" y="12.7627"/><ellipse cx="827" cy="28.7627" fill="#B4A7E5" rx="11" ry="11" style="stroke:#181818;stroke-width:1.0;"/><path d="M827.9531,25.4033 L827.9531,32.0596 L829.6719,32.0596 Q830.2813,32.0596 830.5469,32.2939 Q830.8125,32.5283 830.8125,32.9189 Q830.8125,33.2939 830.5469,33.5283 Q830.2813,33.7627 829.6719,33.7627 L824.5313,33.7627 Q823.9219,33.7627 823.6563,33.5283 Q823.3906,33.2939 823.3906,32.9033 Q823.3906,32.5283 823.6563,32.2939 Q823.9219,32.0596 824.5313,32.0596 L826.25,32.0596 L826.25,25.4033 L824.5313,25.4033 Q823.9219,25.4033 823.6563,25.1689 Q823.3906,24.9346 823.3906,24.5439 Q823.3906,24.1689 823.6563,23.9346 Q823.9219,23.7002 824.5313,23.7002 L829.6719,23.7002 Q830.2813,23.7002 830.5469,23.9346 Q830.8125,24.1689 830.8125,24.5439 Q830.8125,24.9346 830.5469,25.1689 Q830.2813,25.4033 829.6719,25.4033 L827.9531,25.4033 Z " fill="#000000"/><text fill="#000000" font-family="sans-serif" font-size="14" font-style="italic" lengthAdjust="spacing" textLength="122" x="841" y="34.5596">SModuleReference</text></g><!--class ReloadableModule--><g id="elem_ReloadableModule"><rect codeLine="17" fill="#F1F1F1" height="32" id="ReloadableModule" rx="2.5" ry="2.5" style="stroke:#181818;stroke-width:0.5;" width="151" x="776.5" y="120.7627"/><ellipse cx="791.5" cy="136.7627" fill="#B4A7E5" rx="11" ry="11" style="stroke:#181818;stroke-width:1.0;"/><path d="M792.4531,133.4033 L792.4531,140.0596 L794.1719,140.0596 Q794.7813,140.0596 795.0469,140.2939 Q795.3125,140.5283 795.3125,140.9189 Q795.3125,141.2939 795.0469,141.5283 Q794.7813,141.7627 794.1719,141.7627 L789.0313,141.7627 Q788.4219,141.7627 788.1563,141.5283 Q787.8906,141.2939 787.8906,140.9033 Q787.8906,140.5283 788.1563,140.2939 Q788.4219,140.0596 789.0313,140.0596 L790.75,140.0596 L790.75,133.4033 L789.0313,133.4033 Q788.4219,133.4033 788.1563,133.1689 Q787.8906,132.9346 787.8906,132.5439 Q787.8906,132.1689 788.1563,131.9346 Q788.4219,131.7002 789.0313,131.7002 L794.1719,131.7002 Q794.7813,131.7002 795.0469,131.9346 Q795.3125,132.1689 795.3125,132.5439 Q795.3125,132.9346 795.0469,133.1689 Q794.7813,133.4033 794.1719,133.4033 L792.4531,133.4033 Z " fill="#000000"/><text fill="#000000" font-family="sans-serif" font-size="14" font-style="italic" lengthAdjust="spacing" textLength="119" x="805.5" y="142.5596">ReloadableModule</text></g><!--class Language--><g id="elem_Language"><rect codeLine="19" fill="#F1F1F1" height="32" id="Language" rx="2.5" ry="2.5" style="stroke:#181818;stroke-width:0.5;" width="96" x="762" y="259.7627"/><ellipse cx="777" cy="275.7627" fill="#ADD1B2" rx="11" ry="11" style="stroke:#181818;stroke-width:1.0;"/><path d="M779.7656,271.6377 Q779.9219,271.4189 780.1094,271.3096 Q780.2969,271.2002 780.5156,271.2002 Q780.8906,271.2002 781.125,271.4658 Q781.3594,271.7158 781.3594,272.3252 L781.3594,273.7783 Q781.3594,274.3877 781.125,274.6533 Q780.8906,274.9189 780.5156,274.9189 Q780.1719,274.9189 779.9688,274.7158 Q779.7656,274.5283 779.6563,274.0127 Q779.6094,273.6533 779.4219,273.4658 Q779.0938,273.0908 778.4844,272.8721 Q777.875,272.6533 777.25,272.6533 Q776.4844,272.6533 775.8438,272.9814 Q775.2188,273.3096 774.7188,274.0596 Q774.2344,274.8096 774.2344,275.8408 L774.2344,276.9346 Q774.2344,278.1689 775.125,278.9971 Q776.0156,279.8096 777.6094,279.8096 Q778.5469,279.8096 779.2031,279.5596 Q779.5938,279.4033 780.0156,278.9658 Q780.2813,278.7002 780.4219,278.6221 Q780.5781,278.5439 780.7813,278.5439 Q781.1094,278.5439 781.3594,278.8096 Q781.625,279.0596 781.625,279.4033 Q781.625,279.7471 781.2813,280.1533 Q780.7813,280.7314 779.9844,281.0596 Q778.9063,281.5127 777.6094,281.5127 Q776.0938,281.5127 774.8906,280.8877 Q773.9063,280.3877 773.2188,279.3252 Q772.5313,278.2471 772.5313,276.9658 L772.5313,275.8096 Q772.5313,274.4814 773.1406,273.3408 Q773.7656,272.1846 774.8594,271.5752 Q775.9531,270.9502 777.1875,270.9502 Q777.9219,270.9502 778.5625,271.1221 Q779.2188,271.2783 779.7656,271.6377 Z " fill="#000000"/><text fill="#000000" font-family="sans-serif" font-size="14" lengthAdjust="spacing" textLength="64" x="791" y="281.5596">Language</text></g><g id="elem_getLanguageRef"><path d="M525,105.7627 L525,167.6357 L741,167.6357 L741,115.7627 L731,105.7627 L525,105.7627 " fill="#FEFFDD" style="stroke:#181818;stroke-width:0.5;"/><path d="M731,105.7627 L731,115.7627 L741,115.7627 L731,105.7627 " fill="#FEFFDD" style="stroke:#181818;stroke-width:1.0;"/><text fill="#000000" font-family="sans-serif" font-size="13" lengthAdjust="spacing" textLength="126" x="531" y="124.791">MetaAdapterFactory::</text><text fill="#000000" font-family="sans-serif" font-size="13" lengthAdjust="spacing" textLength="195" x="531" y="142.082">getLanguage(SModuleReference):</text><text fill="#000000" font-family="sans-serif" font-size="13" lengthAdjust="spacing" textLength="65" x="531" y="159.373">SLanguage</text></g><g id="elem_getLanguage_Id"><path d="M456,629.7627 L456,691.6357 L732,691.6357 L732,639.7627 L722,629.7627 L456,629.7627 " fill="#FEFFDD" style="stroke:#181818;stroke-width:0.5;"/><path d="M722,629.7627 L722,639.7627 L732,639.7627 L722,629.7627 " fill="#FEFFDD" style="stroke:#181818;stroke-width:1.0;"/><text fill="#000000" font-family="sans-serif" font-size="13" lengthAdjust="spacing" textLength="126" x="462" y="648.791">MetaAdapterFactory::</text><text fill="#000000" font-family="sans-serif" font-size="13" lengthAdjust="spacing" textLength="255" x="462" y="666.082">getLanguage(SLanguageId, languageName):</text><text fill="#000000" font-family="sans-serif" font-size="13" lengthAdjust="spacing" textLength="65" x="462" y="683.373">SLanguage</text></g><g id="elem_getSLanguageRuntime"><path d="M277,321.7627 L277,383.6357 L449,383.6357 L449,331.7627 L439,321.7627 L277,321.7627 " fill="#FEFFDD" style="stroke:#181818;stroke-width:0.5;"/><path d="M439,321.7627 L439,331.7627 L449,331.7627 L439,321.7627 " fill="#FEFFDD" style="stroke:#181818;stroke-width:1.0;"/><text fill="#000000" font-family="sans-serif" font-size="13" lengthAdjust="spacing" textLength="112" x="283" y="340.791">LanguageRegistry::</text><text fill="#000000" font-family="sans-serif" font-size="13" lengthAdjust="spacing" textLength="151" x="283" y="358.082">getLanguage(SLanguage):</text><text fill="#000000" font-family="sans-serif" font-size="13" lengthAdjust="spacing" textLength="104" x="283" y="375.373">LanguageRuntime</text></g><g id="elem_getLanguageIdRuntime"><path d="M239,629.7627 L239,691.6357 L421,691.6357 L421,639.7627 L411,629.7627 L239,629.7627 " fill="#FEFFDD" style="stroke:#181818;stroke-width:0.5;"/><path d="M411,629.7627 L411,639.7627 L421,639.7627 L411,629.7627 " fill="#FEFFDD" style="stroke:#181818;stroke-width:1.0;"/><text fill="#000000" font-family="sans-serif" font-size="13" lengthAdjust="spacing" textLength="112" x="245" y="648.791">LanguageRegistry::</text><text fill="#000000" font-family="sans-serif" font-size="13" lengthAdjust="spacing" textLength="161" x="245" y="666.082">getLanguage(SLanguageId):</text><text fill="#000000" font-family="sans-serif" font-size="13" lengthAdjust="spacing" textLength="104" x="245" y="683.373">LanguageRuntime</text></g><g id="elem_getLanguageRuntime"><path d="M525.5,413.7627 L525.5,475.6357 L688.5,475.6357 L688.5,423.7627 L678.5,413.7627 L525.5,413.7627 " fill="#FEFFDD" style="stroke:#181818;stroke-width:0.5;"/><path d="M678.5,413.7627 L678.5,423.7627 L688.5,423.7627 L678.5,413.7627 " fill="#FEFFDD" style="stroke:#181818;stroke-width:1.0;"/><text fill="#000000" font-family="sans-serif" font-size="13" lengthAdjust="spacing" textLength="112" x="531.5" y="432.791">LanguageRegistry::</text><text fill="#000000" font-family="sans-serif" font-size="13" lengthAdjust="spacing" textLength="142" x="531.5" y="450.082">getLanguage(Language):</text><text fill="#000000" font-family="sans-serif" font-size="13" lengthAdjust="spacing" textLength="104" x="531.5" y="467.373">LanguageRuntime</text></g><g id="elem_getLanguageId"><path d="M723.5,413.7627 L723.5,475.6357 L896.5,475.6357 L896.5,423.7627 L886.5,413.7627 L723.5,413.7627 " fill="#FEFFDD" style="stroke:#181818;stroke-width:0.5;"/><path d="M886.5,413.7627 L886.5,423.7627 L896.5,423.7627 L886.5,413.7627 " fill="#FEFFDD" style="stroke:#181818;stroke-width:1.0;"/><text fill="#000000" font-family="sans-serif" font-size="13" lengthAdjust="spacing" textLength="128" x="729.5" y="432.791">MetaIdByDeclaration::</text><text fill="#000000" font-family="sans-serif" font-size="13" lengthAdjust="spacing" textLength="152" x="729.5" y="450.082">getLanguageId(Language):</text><text fill="#000000" font-family="sans-serif" font-size="13" lengthAdjust="spacing" textLength="75" x="729.5" y="467.373">SLanguageId</text></g><!--link SLanguage to SModule--><g id="link_SLanguage_SModule"><path codeLine="5" d="M415.51,28.7627 C457.02,28.7627 514.56,28.7627 555.32,28.7627 " fill="none" id="SLanguage-to-SModule" style="stroke:#181818;stroke-width:1.0;"/><polygon fill="#181818" points="560.7,28.7627,551.7,24.7627,555.7,28.7627,551.7,32.7627,560.7,28.7627" style="stroke:#181818;stroke-width:1.0;"/><text fill="#000000" font-family="sans-serif" font-size="13" lengthAdjust="spacing" textLength="109" x="433.75" y="21.791">getSourceModule()</text></g><!--reverse link SLanguage to SLanguageAdapter--><g id="link_SLanguage_SLanguageAdapter"><path d="M332.1,59.0627 C290.48,98.5227 217.94,167.3027 185.94,197.6427 " fill="none" id="SLanguage-backto-SLanguageAdapter" style="stroke:#181818;stroke-width:1.0;stroke-dasharray:7.0,7.0;"/><polygon fill="none" points="327.55,53.7327,346.88,45.0527,337.18,63.8927,327.55,53.7327" style="stroke:#181818;stroke-width:1.0;"/></g><!--link SLanguageAdapter to LanguageRuntime--><g id="link_SLanguageAdapter_LanguageRuntime"><path codeLine="8" d="M157.79,229.7727 C134.81,259.9627 89.73,329.7427 116,383.7627 C152.29,458.3927 239.57,509.7127 290.75,534.5727 " fill="none" id="SLanguageAdapter-to-LanguageRuntime" style="stroke:#181818;stroke-width:1.0;"/><polygon fill="#181818" points="295.29,536.7527,288.9134,529.2468,290.7842,534.5853,285.4456,536.4561,295.29,536.7527" style="stroke:#181818;stroke-width:1.0;"/><text fill="#000000" font-family="sans-serif" font-size="13" lengthAdjust="spacing" textLength="141" x="117" y="358.291">getLanguageDescriptor()</text></g><!--link LanguageRuntime to SLanguage--><g id="link_LanguageRuntime_SLanguage"><path codeLine="11" d="M255.67,542.5527 C160.01,528.5927 6,497.9927 6,445.7627 C6,135.7627 6,135.7627 6,135.7627 C6,74.0927 204.27,45.4727 305.29,34.8927 " fill="none" id="LanguageRuntime-to-SLanguage" style="stroke:#181818;stroke-width:1.0;"/><polygon fill="#181818" points="310.32,34.3727,300.9562,31.32,305.3465,34.8872,301.7794,39.2776,310.32,34.3727" style="stroke:#181818;stroke-width:1.0;"/><text fill="#000000" font-family="sans-serif" font-size="13" lengthAdjust="spacing" textLength="68" x="7" y="281.291">getIdentity()</text></g><!--link LanguageRuntime to SLanguageId--><g id="link_LanguageRuntime_SLanguageId"><path codeLine="12" d="M404.24,552.7627 C444.09,552.7627 492.68,552.7627 530.72,552.7627 " fill="none" id="LanguageRuntime-to-SLanguageId" style="stroke:#181818;stroke-width:1.0;"/><polygon fill="#181818" points="535.77,552.7627,526.77,548.7627,530.77,552.7627,526.77,556.7627,535.77,552.7627" style="stroke:#181818;stroke-width:1.0;"/><text fill="#000000" font-family="sans-serif" font-size="13" lengthAdjust="spacing" textLength="36" x="452" y="545.791">getId()</text></g><!--link SModule to SModuleReference--><g id="link_SModule_SModuleReference"><path codeLine="15" d="M649.06,28.7627 C691.01,28.7627 755.2,28.7627 806.63,28.7627 " fill="none" id="SModule-to-SModuleReference" style="stroke:#181818;stroke-width:1.0;"/><polygon fill="#181818" points="811.88,28.7627,802.88,24.7627,806.88,28.7627,802.88,32.7627,811.88,28.7627" style="stroke:#181818;stroke-width:1.0;"/><text fill="#000000" font-family="sans-serif" font-size="13" lengthAdjust="spacing" textLength="126" x="667.5" y="21.791">getModuleReference()</text></g><!--link SModuleReference to SModule--><g id="link_SModuleReference_SModule"><path codeLine="25" d="M827.14,44.8127 C815.22,47.2927 802.79,49.4527 791,50.7627 C737.55,56.6927 723.06,59.5027 670,50.7627 C663.63,49.7127 657.04,48.1227 650.62,46.2627 " fill="none" id="SModuleReference-to-SModule" style="stroke:#181818;stroke-width:1.0;"/><polygon fill="#181818" points="645.74,44.8027,653.2023,51.2304,650.5272,46.246,655.5115,43.5709,645.74,44.8027" style="stroke:#181818;stroke-width:1.0;"/><text fill="#000000" font-family="sans-serif" font-size="13" lengthAdjust="spacing" textLength="119" x="671" y="46.791">resolve(SRepository)</text></g><!--reverse link SModule to ReloadableModule--><g id="link_SModule_ReloadableModule"><path d="M658.66,52.7927 C706.69,73.4027 775.73,103.0327 816.99,120.7427 " fill="none" id="SModule-backto-ReloadableModule" style="stroke:#181818;stroke-width:1.0;"/><polygon fill="none" points="655.75,59.1527,640.13,44.8327,661.27,46.2927,655.75,59.1527" style="stroke:#181818;stroke-width:1.0;"/></g><!--reverse link ReloadableModule to Language--><g id="link_ReloadableModule_Language"><path d="M841.4,172.3527 C832.8,200.4027 821.09,238.5927 814.68,259.5127 " fill="none" id="ReloadableModule-backto-Language" style="stroke:#181818;stroke-width:1.0;stroke-dasharray:7.0,7.0;"/><polygon fill="none" points="834.79,170.0127,847.34,152.9427,848.18,174.1227,834.79,170.0127" style="stroke:#181818;stroke-width:1.0;"/></g><!--link SModuleReference to getLanguageRef--><g id="link_SModuleReference_getLanguageRef"><path codeLine="34" d="M852.59,44.8327 C815.76,60.0927 757.67,84.1427 710.49,103.6727 " fill="none" id="SModuleReference-to-getLanguageRef" style="stroke:#181818;stroke-width:1.0;stroke-dasharray:7.0,7.0;"/><polygon fill="#181818" points="705.67,105.6727,715.5158,105.9186,710.2883,103.7567,712.4502,98.5293,705.67,105.6727" style="stroke:#181818;stroke-width:1.0;"/></g><!--link getLanguageRef to SLanguage--><g id="link_getLanguageRef_SLanguage"><path codeLine="35" d="M570.05,105.7027 C547.53,95.3827 521.83,84.0927 498,74.7627 C471.69,64.4627 441.94,54.3827 417.08,46.3827 " fill="none" id="getLanguageRef-to-SLanguage" style="stroke:#181818;stroke-width:1.0;stroke-dasharray:7.0,7.0;"/><polygon fill="#181818" points="412.17,44.8127,419.5149,51.3742,416.9303,46.3423,421.9622,43.7577,412.17,44.8127" style="stroke:#181818;stroke-width:1.0;"/></g><!--link SLanguageId to getLanguage_Id--><g id="link_SLanguageId_getLanguage_Id"><path codeLine="38" d="M594,568.9527 C594,583.3927 594,605.6527 594,624.5127 " fill="none" id="SLanguageId-to-getLanguage_Id" style="stroke:#181818;stroke-width:1.0;stroke-dasharray:7.0,7.0;"/><polygon fill="#181818" points="594,629.7327,598,620.7327,594,624.7327,590,620.7327,594,629.7327" style="stroke:#181818;stroke-width:1.0;"/></g><!--link getLanguage_Id to SLanguage--><g id="link_getLanguage_Id_SLanguage"><path codeLine="39" d="M526.22,629.6527 C498.14,612.1927 472,587.0127 472,553.7627 C472,135.7627 472,135.7627 472,135.7627 C472,95.0027 432.35,64.8527 400.87,47.3427 " fill="none" id="getLanguage_Id-to-SLanguage" style="stroke:#181818;stroke-width:1.0;stroke-dasharray:7.0,7.0;"/><polygon fill="#181818" points="396.3,44.8427,402.2946,52.6571,400.6922,47.2319,406.1174,45.6296,396.3,44.8427" style="stroke:#181818;stroke-width:1.0;"/></g><!--link SLanguage to getSLanguageRuntime--><g id="link_SLanguage_getSLanguageRuntime"><path codeLine="48" d="M363,44.8627 C363,93.3327 363,245.9127 363,315.9627 " fill="none" id="SLanguage-to-getSLanguageRuntime" style="stroke:#181818;stroke-width:1.0;stroke-dasharray:7.0,7.0;"/><polygon fill="#181818" points="363,321.2727,367,312.2727,363,316.2727,359,312.2727,363,321.2727" style="stroke:#181818;stroke-width:1.0;"/></g><!--link getSLanguageRuntime to LanguageRuntime--><g id="link_getSLanguageRuntime_LanguageRuntime"><path codeLine="49" d="M357.99,383.8327 C351.21,424.5027 339.3,495.9627 333.45,531.0927 " fill="none" id="getSLanguageRuntime-to-LanguageRuntime" style="stroke:#181818;stroke-width:1.0;stroke-dasharray:7.0,7.0;"/><polygon fill="#181818" points="332.56,536.4027,337.9967,528.1904,333.3889,531.4719,330.1075,526.8641,332.56,536.4027" style="stroke:#181818;stroke-width:1.0;"/></g><!--link SLanguageId to getLanguageIdRuntime--><g id="link_SLanguageId_getLanguageIdRuntime"><path codeLine="52" d="M556.46,568.8327 C518.39,584.1227 458.33,608.2327 409.62,627.7927 " fill="none" id="SLanguageId-to-getLanguageIdRuntime" style="stroke:#181818;stroke-width:1.0;stroke-dasharray:7.0,7.0;"/><polygon fill="#181818" points="404.94,629.6727,414.7819,630.0441,409.5824,627.8157,411.8107,622.6163,404.94,629.6727" style="stroke:#181818;stroke-width:1.0;"/></g><!--link getLanguageIdRuntime to LanguageRuntime--><g id="link_getLanguageIdRuntime_LanguageRuntime"><path codeLine="53" d="M330,629.7327 C330,611.9227 330,589.8027 330,574.0427 " fill="none" id="getLanguageIdRuntime-to-LanguageRuntime" style="stroke:#181818;stroke-width:1.0;stroke-dasharray:7.0,7.0;"/><polygon fill="#181818" points="330,568.9527,326,577.9527,330,573.9527,334,577.9527,330,568.9527" style="stroke:#181818;stroke-width:1.0;"/></g><!--link Language to getLanguageRuntime--><g id="link_Language_getLanguageRuntime"><path codeLine="58" d="M791.63,291.8727 C759.23,318.5327 691.22,374.4727 647.41,410.5227 " fill="none" id="Language-to-getLanguageRuntime" style="stroke:#181818;stroke-width:1.0;stroke-dasharray:7.0,7.0;"/><polygon fill="#181818" points="643.51,413.7327,653.0023,411.1064,647.3721,410.5572,647.9214,404.927,643.51,413.7327" style="stroke:#181818;stroke-width:1.0;"/></g><!--link getLanguageRuntime to LanguageRuntime--><g id="link_getLanguageRuntime_LanguageRuntime"><path codeLine="59" d="M528.36,475.8527 C478.31,495.0127 415.34,519.1027 373.94,534.9527 " fill="none" id="getLanguageRuntime-to-LanguageRuntime" style="stroke:#181818;stroke-width:1.0;stroke-dasharray:7.0,7.0;"/><polygon fill="#181818" points="369.25,536.7427,379.085,537.2654,373.9204,534.9574,376.2285,529.7928,369.25,536.7427" style="stroke:#181818;stroke-width:1.0;"/></g><!--link Language to getLanguageId--><g id="link_Language_getLanguageId"><path codeLine="67" d="M810,291.8727 C810,318.0527 810,372.4627 810,408.5427 " fill="none" id="Language-to-getLanguageId" style="stroke:#181818;stroke-width:1.0;stroke-dasharray:7.0,7.0;"/><polygon fill="#181818" points="810,413.7327,814,404.7327,810,408.7327,806,404.7327,810,413.7327" style="stroke:#181818;stroke-width:1.0;"/></g><!--link getLanguageId to SLanguageId--><g id="link_getLanguageId_SLanguageId"><path codeLine="68" d="M748.68,475.8527 C710.05,494.8127 661.54,518.6227 629.25,534.4627 " fill="none" id="getLanguageId-to-SLanguageId" style="stroke:#181818;stroke-width:1.0;stroke-dasharray:7.0,7.0;"/><polygon fill="#181818" points="624.61,536.7427,634.4509,536.3457,629.0935,534.5295,630.9097,529.1721,624.61,536.7427" style="stroke:#181818;stroke-width:1.0;"/></g><!--SRC=[dLLHQzim47w_No7wuWIM_80m2XsX45Z6Y1-tKXJhcehPih6KiJ3stoixbYMTvT0kBr7kFjrzzzsTyYe5CgmQSs4LLaTiDO1K1jiNNY3Blt9rElCJ0en7jhfd-RuMvn8tx8GchyzjWLV3OWd0Zzgql32iABdMFiI3u8sDosJLb5YXCe4F9YYRn9aEPsLaTKtcR5lKHIiRKxU9bEGYaDzz0SxMHzq9IqUQYurr2xiJ0xhB6OXqhHs6xq2V0xvWYwguPY6sECW1oveBVYm79Hd-CQY47gD3N5ie8xqBMTYhgMG1cqZ7B4xXVICPUWaIEem50ZL4azEYhilVkCWFsDHQsc2NfIioK1mSg_rtFu6EJagCBJRMPuz-T25hUF6hm-tHy6727ksys9piBp3xKRL1TZTrRpO_LJ1s2rhIqlf7NdUCwt18BQeFFj5XlRvFuM9JZmeMy4CqlO2VM3cSl_7gDjzdAtVFrz-cL1qaDb6gMQAQrOzNAMnVdbQJWDa_o7npFw_NYJw5NVHXJz8kVjn3wfoLffE2RBiJ9ASlIAIAqoI9IjXxFCN-3-ETkC7PWvAafwsCWIb7cdWsL-PCXtsU3zJyZYQbrASjckdGkngKpSeoKwYxsOqppT0DDQsPl4ixyUMoHVlOjTp8MaqU9k8dYja_fL2peE_J0RafrNJ1wNxJZRL-jxE48y0R]--></g></svg>